<svg version="1.2" xmlns="http://www.w3.org/2000/svg" viewBox="0 0 650 650" width="650" height="650">
	<style>
		.s0 { fill: #ff8888 } 
		.s1 { fill: #ffffff } 
	</style>
	<path id="Capa 1" fill-rule="evenodd" class="s0" d="m50 6h550c22.09 0 40 17.91 40 40v558c0 22.09-17.91 40-40 40h-550c-22.09 0-40-17.91-40-40v-558c0-22.09 17.91-40 40-40z"/>
	<path class="s1" d="m246.26 142.47c35.11-62.98 52.66-94.47 78.91-94.47 26.24 0 43.79 31.49 78.9 94.47l9.08 16.29c9.98 17.9 14.97 26.85 22.75 32.75 7.77 5.91 17.46 8.1 36.83 12.48l17.64 3.99c68.17 15.43 102.26 23.14 110.37 49.22 8.11 26.08-15.13 53.25-61.6 107.6l-12.03 14.06c-13.2 15.44-19.81 23.17-22.78 32.72-2.97 9.55-1.97 19.86 0.02 40.46l1.82 18.76c7.03 72.51 10.54 108.77-10.69 124.89-21.23 16.11-53.15 1.42-116.98-27.97l-16.51-7.6c-18.14-8.36-27.21-12.53-36.82-12.53-9.62 0-18.69 4.17-36.83 12.53l-16.51 7.6c-63.83 29.39-95.75 44.08-116.98 27.97-21.23-16.12-17.72-52.38-10.69-124.89l1.82-18.76c1.99-20.6 2.99-30.91 0.02-40.46-2.97-9.55-9.57-17.28-22.78-32.72l-12.02-14.06c-46.48-54.35-69.72-81.52-61.61-107.6 8.11-26.08 42.2-33.79 110.37-49.22l17.64-3.99c19.37-4.38 29.06-6.57 36.84-12.48 7.77-5.9 12.76-14.85 22.74-32.75z"/>
</svg>