<svg version="1.2" xmlns="http://www.w3.org/2000/svg" viewBox="0 0 650 650" width="650" height="650">
	<style>
		.s0 { fill: #e91916 } 
		.s1 { fill: #ffffff } 
	</style>
	<path id="Capa 1" fill-rule="evenodd" class="s0" d="m50 6h550c22.09 0 40 17.91 40 40v558c0 22.09-17.91 40-40 40h-550c-22.09 0-40-17.91-40-40v-558c0-22.09 17.91-40 40-40z"/>
	<path fill-rule="evenodd" class="s1" d="m108.33 158.33h333.34c27.61 0 50 22.39 50 50v66.67l75.88-37.94c11.08-5.54 24.12 2.52 24.12 14.91v182.31c0 11.64-11.63 19.69-22.52 15.61l-77.48-29.06v54.17c0 27.61-22.39 50-50 50h-333.34c-27.61 0-50-22.39-50-50v-266.67c0-27.61 22.39-50 50-50z"/>
</svg>